<?xml version="1.0" encoding="utf-8"?>
<!-- Generator: Adobe Illustrator 23.0.3, SVG Export Plug-In . SVG Version: 6.00 Build 0)  -->
<svg version="1.1" id="Layer_1" xmlns="http://www.w3.org/2000/svg" xmlns:xlink="http://www.w3.org/1999/xlink" x="0px" y="0px"
	 viewBox="0 0 153.6 153.6" style="enable-background:new 0 0 153.6 153.6;" xml:space="preserve">
<style type="text/css">
	.st0{fill:#791B79;}
	.st1{fill:#85572E;}
	.st2{fill:#E76D30;}
	.st3{fill:#BD356C;}
	.st4{fill:#EFA3AC;}
	.st5{fill:#F5C042;}
	.st6{fill:#A23038;}
	.st7{fill:#517BB9;}
	.st8{fill:#606060;}
	.st9{fill:#50ADD6;}
	.st10{fill:#952175;}
	.st11{fill:#60A430;}
	.st12{fill:#2C397F;}
	.st13{fill:#DF4092;}
	.st14{fill:#E8322C;}
	.st15{fill:#5286EC;}
	.st16{fill:#907FAA;}
	.st17{fill:#031521;}
</style>
<g>
	<path class="st9" d="M109.1,43.1c-1.3-6.6-2.3-10.7-2.3-10.7c-33.4,13.6-65.8,0-65.8,0c-0.7,2.5-1.5,5.7-2.2,9.3
		C49.4,46.6,75.3,55.4,109.1,43.1z"/>
	<path class="st9" d="M109.5,45c-12.8,4.6-24.4,6.3-34.6,6.3c-16.8,0-29.6-4.5-36.5-7.7c-5.6,28.1-11,79.1-11,79.1
		c14.3,0,38.5,3.9,38.5,3.9s-0.7-43.4,9-39.4c9.7,4.1,6.4,39.4,6.4,39.4c27.9-7.2,38.1-4.6,38.1-4.6
		C120.8,104.1,113.6,65.2,109.5,45z"/>
</g>
</svg>
